<svg xmlns="http://www.w3.org/2000/svg" version="1.1" xmlns:xlink="http://www.w3.org/1999/xlink" xmlns:svgjs="http://svgjs.dev/svgjs" width="1000" height="1000" viewBox="0 0 1000 1000"><rect width="1000" height="1000" fill="#ffffff"></rect><g transform="matrix(0.7,0,0,0.7,149.57575757575756,282.1265587044535)"><svg viewBox="0 0 396 247" data-background-color="#ffffff" preserveAspectRatio="xMidYMid meet" height="623" width="1000" xmlns="http://www.w3.org/2000/svg" xmlns:xlink="http://www.w3.org/1999/xlink"><g id="tight-bounds" transform="matrix(1,0,0,1,0.2400000000000091,-0.09999999999999432)"><svg viewBox="0 0 395.52 247.2" height="247.2" width="395.52"><g><svg></svg></g><g><svg viewBox="0 0 395.52 247.2" height="247.2" width="395.52"><mask id="3a2913d1-75f2-4ba0-9a20-ee7fd3b98427"><rect width="395.52" height="247.2" fill="white"></rect><g transform="matrix(1,0,0,1,5.062756005056883,37.08)" id="clone"><svg viewBox="0 0 385.3944879898862 173.04" height="173.04" width="385.3944879898862"><g><svg viewBox="0 0 385.3944879898862 173.04" height="173.04" width="385.3944879898862"><g><svg viewBox="0 0 385.3944879898862 173.04" height="173.04" width="385.3944879898862"><g><svg viewBox="0 0 385.3944879898862 173.04" height="173.04" width="385.3944879898862"><g id="SvgjsG1486"><svg viewBox="0 0 385.3944879898862 173.04" height="173.04" width="385.3944879898862" id="SvgjsSvg1485"><g><svg viewBox="0 0 385.3944879898862 173.04" height="173.04" width="385.3944879898862"><g transform="matrix(1,0,0,1,0,0)"><svg width="385.3944879898862" viewBox="0.2200000286102295 -38.959999084472656 121.41999816894531 55.06999969482422" height="173.04" data-palette-color="#0db51f"><path d="M27.71-20.07L27.71-20.07Q27.61-19.7 27.34-19.02 27.08-18.33 26.73-17.47 26.39-16.6 25.98-15.64 25.56-14.67 25.17-13.75L25.17-13.75Q25-13.33 24.77-13.13 24.54-12.94 23.83-12.92L23.83-12.92 16.7-12.79 15.82-1.95Q15.8-1.73 15.7-1.53 15.6-1.32 15.41-1.2L15.41-1.2Q15.33-1.15 14.83-0.92 14.33-0.68 13.57-0.37 12.82-0.05 11.91 0.32 11.01 0.68 10.13 0.99 9.25 1.29 8.52 1.5 7.79 1.71 7.37 1.71L7.37 1.71Q6.88 1.71 6.48 1.53 6.08 1.34 6.08 0.78L6.08 0.78Q6.05-0.44 6.14-1.92 6.23-3.39 6.35-4.92 6.47-6.45 6.62-7.92 6.76-9.4 6.86-10.62L6.86-10.62 7.03-12.67Q4.98-12.67 4.1-12.78 3.22-12.89 3.22-13.35L3.22-13.35Q3.22-13.67 3.59-14.18L3.59-14.18Q4.1-14.89 4.75-15.89 5.4-16.89 5.99-17.85 6.59-18.8 7.04-19.53 7.5-20.26 7.62-20.43L7.62-20.43 8.08-27.15Q7.62-27.15 7.28-27.14 6.93-27.12 6.65-27.11 6.37-27.1 6.13-27.09 5.88-27.08 5.62-27.08L5.62-27.08Q4.44-27.08 3.94-27.21 3.44-27.34 3.44-27.71L3.44-27.71Q3.44-27.88 3.74-28.42 4.03-28.96 4.46-29.65 4.88-30.35 5.38-31.12 5.88-31.88 6.27-32.54L6.27-32.54 7.74-35.03 18.85-35.42Q21-35.5 23.12-35.58 25.24-35.67 27.04-35.74 28.83-35.82 30.13-35.88 31.42-35.94 31.93-35.96L31.93-35.96Q31.96-35.96 32.07-35.95 32.18-35.94 32.3-35.88 32.42-35.82 32.53-35.67 32.64-35.52 32.64-35.25L32.64-35.25Q32.64-35.11 32.3-34.28 31.96-33.45 31.32-31.81L31.32-31.81 30.25-28.98Q30.08-28.56 29.86-28.34 29.64-28.13 28.93-28.1L28.93-28.1Q28.1-28.08 27.25-28.03 26.39-27.98 25.49-27.93L25.49-27.93 18.07-27.56Q17.92-26.61 17.86-26.15 17.8-25.68 17.79-25.38 17.77-25.07 17.77-24.77 17.77-24.46 17.75-23.8L17.75-23.8Q17.72-23.34 17.69-23.02 17.65-22.71 17.61-22.4 17.58-22.09 17.54-21.75 17.5-21.41 17.48-20.9L17.48-20.9Q19.09-20.95 20.64-21 22.19-21.04 23.5-21.09 24.8-21.14 25.76-21.18 26.71-21.22 27.1-21.22L27.1-21.22Q27.29-21.22 27.54-21.07 27.78-20.92 27.78-20.51L27.78-20.51Q27.78-20.31 27.71-20.07ZM44.63-27.25L44.63-27.25Q46.95-27.25 48.84-26.38 50.73-25.51 52.08-24.13 53.44-22.75 54.17-21.04 54.9-19.34 54.9-17.63L54.9-17.63Q54.9-16.11 53.98-14.59 53.05-13.06 51.38-11.84 49.7-10.62 47.36-9.86 45.02-9.11 42.21-9.11L42.21-9.11Q40.74-9.11 39.13-9.4L39.13-9.4Q39.23-8.35 39.74-7.59 40.26-6.84 41.04-6.35 41.82-5.86 42.81-5.63 43.8-5.4 44.85-5.4L44.85-5.4Q46.02-5.4 47.1-5.6 48.19-5.81 49.19-6.15 50.19-6.49 51.12-6.91 52.05-7.32 52.88-7.74L52.88-7.74Q53.1-7.79 53.26-7.82 53.42-7.86 53.56-7.86L53.56-7.86Q53.56-7.86 53.55-7.47 53.54-7.08 53.54-6.37 53.54-5.66 53.53-4.66 53.51-3.66 53.49-2.44L53.49-2.44Q53.56-2.32 53.59-2.2 53.61-2.08 53.61-2L53.61-2Q53.61-1.71 53.07-1.37 52.54-1.03 51.67-0.66 50.8-0.29 49.69 0.05 48.58 0.39 47.43 0.67 46.29 0.95 45.21 1.11 44.14 1.27 43.33 1.27L43.33 1.27Q40.7 1.27 38.22 0.35 35.74-0.56 33.82-2.27 31.91-3.98 30.76-6.42 29.61-8.86 29.61-11.91L29.61-11.91Q29.61-15.11 30.71-17.91 31.81-20.7 33.8-22.78 35.79-24.85 38.55-26.05 41.31-27.25 44.63-27.25ZM44.33-20.75L44.33-20.75Q43.33-20.75 42.49-20.32 41.65-19.9 40.95-19.1 40.26-18.31 39.74-17.2 39.23-16.09 38.91-14.75L38.91-14.75Q41.43-15.19 43.09-15.67 44.75-16.16 45.75-16.66 46.75-17.16 47.17-17.66 47.58-18.16 47.58-18.63L47.58-18.63Q47.58-19.07 47.25-19.46 46.92-19.85 46.43-20.14 45.94-20.43 45.37-20.59 44.8-20.75 44.33-20.75ZM84.15-0.78L78.22 0.88Q77.95 0.95 77.51 1.11 77.07 1.27 76.66 1.27L76.66 1.27Q76.31 1.27 76.06 1.1 75.8 0.93 75.8 0.51L75.8 0.51 75.8 0.37Q75.95-0.95 76.04-1.87 76.14-2.78 76.23-3.53 76.31-4.27 76.37-5.02 76.44-5.76 76.53-6.75 76.63-7.74 76.77-9.09 76.9-10.45 77.09-12.48L77.09-12.48Q77.22-13.72 77.31-15.01 77.41-16.31 77.41-17.41L77.41-17.41Q77.41-18.14 77.3-18.76 77.19-19.38 76.91-19.84 76.63-20.29 76.14-20.53 75.65-20.78 74.9-20.78L74.9-20.78Q74.34-20.78 73.35-20.53 72.36-20.29 71.38-19.73 70.41-19.17 69.65-18.25 68.89-17.33 68.79-15.99L68.79-15.99Q68.65-14.18 68.53-12.9 68.4-11.62 68.31-10.73 68.21-9.84 68.15-9.28 68.09-8.72 68.06-8.33L68.06-8.33Q68.04-8.23 67.99-7.79 67.94-7.35 67.88-6.74 67.82-6.13 67.76-5.44 67.7-4.76 67.63-4.15 67.57-3.54 67.54-3.1 67.5-2.66 67.5-2.56L67.5-2.56Q67.5-2.37 67.51-2.23 67.52-2.1 67.52-1.98L67.52-1.98Q67.52-1.78 67.34-1.65 67.16-1.51 66.52-1.34L66.52-1.34 60.05 0.88Q59.79 0.98 59.35 1.12 58.91 1.27 58.49 1.27L58.49 1.27Q58.15 1.27 57.89 1.1 57.64 0.93 57.64 0.51L57.64 0.51 59.86-24.44Q59.93-25.24 60.04-25.55 60.15-25.85 60.59-25.95L60.59-25.95Q62.81-26.39 65.16-26.84 67.5-27.29 69.72-28L69.72-28Q69.92-28 69.95-27.94 69.99-27.88 69.99-27.76L69.99-27.76Q69.99-27.71 69.98-27.61 69.97-27.51 69.9-27.17 69.84-26.83 69.73-26.14 69.62-25.44 69.43-24.19L69.43-24.19Q71.11-25.17 72.59-25.77 74.07-26.37 75.37-26.7 76.68-27.03 77.83-27.14 78.97-27.25 79.98-27.25L79.98-27.25Q83.42-27.25 84.98-25.16 86.54-23.07 86.54-18.9L86.54-18.9Q86.54-18.31 86.52-17.69 86.49-17.07 86.42-16.41L86.42-16.41 85.3-5.91Q85.18-4.88 85.15-4.02 85.13-3.15 85.13-2L85.13-2Q85.13-1.81 85.14-1.67 85.15-1.54 85.15-1.44L85.15-1.44Q85.15-1.22 84.97-1.1 84.79-0.98 84.15-0.78L84.15-0.78ZM108-17.04L108.02-17.41Q107.78-17.97 107.35-18.55 106.93-19.14 106.36-19.63 105.8-20.12 105.14-20.42 104.48-20.73 103.75-20.73L103.75-20.73Q102.75-20.73 101.87-19.9 100.99-19.07 100.33-17.69 99.68-16.31 99.3-14.54 98.92-12.77 98.92-10.86L98.92-10.86Q98.92-9.69 99.13-8.65 99.33-7.62 99.77-6.84 100.21-6.05 100.91-5.59 101.6-5.13 102.58-5.13L102.58-5.13Q104.05-5.13 105.27-6.04 106.49-6.96 107.34-8.42L107.34-8.42Q107.37-8.94 107.41-9.64 107.46-10.35 107.54-11.36 107.61-12.38 107.72-13.76 107.83-15.14 108-17.04L108-17.04ZM118.62-25.71L116.11-2.66Q115.86-0.24 115.01 1.86 114.15 3.96 112.85 5.7 111.54 7.45 109.87 8.83 108.2 10.21 106.33 11.16 104.46 12.11 102.48 12.61 100.51 13.11 98.58 13.11L98.58 13.11Q97.55 13.11 96.48 13.04 95.4 12.96 94.38 12.76 93.35 12.55 92.42 12.17 91.5 11.79 90.76 11.21L90.76 11.21 90.76 11.18Q90.76 11.06 90.95 10.33 91.13 9.59 91.39 8.61 91.64 7.62 91.92 6.57 92.2 5.52 92.4 4.76L92.4 4.76Q92.5 4.42 92.6 4.3 92.69 4.17 92.81 4.17L92.81 4.17Q92.96 4.17 92.99 4.2L92.99 4.2Q93.69 4.66 94.32 4.97 94.94 5.27 95.63 5.46 96.33 5.64 97.16 5.71 97.99 5.79 99.09 5.79L99.09 5.79Q100.8 5.79 102.12 5.13 103.43 4.47 104.39 3.42 105.34 2.37 105.91 1.11 106.49-0.15 106.71-1.37L106.71-1.37Q104.95-0.2 103.14 0.54 101.34 1.27 99.5 1.27L99.5 1.27Q96.99 1.27 95.16 0.26 93.33-0.76 92.13-2.47 90.93-4.17 90.36-6.38 89.79-8.59 89.79-11.01L89.79-11.01Q89.79-12.92 90.14-14.86 90.5-16.8 91.19-18.6 91.89-20.41 92.91-21.98 93.94-23.56 95.28-24.73 96.62-25.9 98.26-26.57 99.89-27.25 101.82-27.25L101.82-27.25Q103.92-27.25 105.72-26.32 107.51-25.39 108.98-24.02L108.98-24.02Q109.03-24.46 109.05-24.72 109.07-24.98 109.17-25.12 109.27-25.27 109.5-25.34 109.73-25.42 110.17-25.51L110.17-25.51Q110.44-25.56 111.15-25.72 111.86-25.88 112.83-26.1 113.81-26.32 114.98-26.56 116.15-26.81 117.35-27.08L117.35-27.08Q117.64-27.15 117.89-27.15L117.89-27.15Q118.64-27.15 118.64-26.17L118.64-26.17Q118.64-26.05 118.64-25.94 118.64-25.83 118.62-25.71L118.62-25.71Z" opacity="1" transform="matrix(1,0,0,1,0,0)" fill="black" class="wordmark-text-0" id="SvgjsPath1484" stroke-width="5" stroke="black" stroke-linejoin="round"></path></svg></g></svg></g></svg></g></svg></g></svg></g></svg></g></svg></g></mask><g mask="url(#3a2913d1-75f2-4ba0-9a20-ee7fd3b98427)"><g><path xmlns="http://www.w3.org/2000/svg" d="M261.937 104.275v0c-0.437 1.619-1.247 3.915-2.428 6.89-1.137 3.019-2.472 6.409-4.003 10.171-1.487 3.806-3.128 7.809-4.921 12.009-1.837 4.243-3.609 8.378-5.315 12.402v0c-0.744 1.837-1.619 3.194-2.625 4.069-1.006 0.831-3.062 1.291-6.169 1.378v0l-46.787 0.853-5.775 71.133c-0.087 0.962-0.35 1.881-0.787 2.756-0.437 0.919-1.072 1.641-1.903 2.165v0c-0.35 0.219-1.619 0.831-3.806 1.838-2.187 1.05-4.943 2.253-8.269 3.609-3.281 1.4-6.912 2.909-10.893 4.528-3.937 1.575-7.831 3.04-11.68 4.396-3.85 1.312-7.371 2.428-10.565 3.347-3.194 0.919-5.709 1.378-7.547 1.378v0c-2.144 0-4.09-0.394-5.84-1.181-1.75-0.831-2.625-2.472-2.625-4.922v0c-0.131-5.337 0-11.243 0.394-17.717 0.394-6.431 0.853-12.993 1.378-19.687 0.525-6.693 1.116-13.255 1.772-19.686 0.612-6.475 1.137-12.38 1.575-17.718v0l1.115-13.452c-8.968 0-15.377-0.241-19.227-0.722-3.85-0.481-5.775-1.728-5.774-3.74v0c0-1.4 0.809-3.215 2.428-5.447v0c2.231-3.106 4.768-6.846 7.612-11.221 2.844-4.375 5.556-8.662 8.137-12.862 2.625-4.156 4.922-7.831 6.89-11.024 2.012-3.194 3.281-5.162 3.806-5.906v0l3.018-44.097c-2.012 0-3.762 0.022-5.249 0.066-1.531 0.087-2.909 0.153-4.134 0.196-1.225 0.044-2.362 0.087-3.413 0.132-1.094 0.044-2.209 0.066-3.346 0.065v0c-5.162 0-8.837-0.284-11.025-0.853-2.187-0.569-3.281-1.662-3.281-3.281v0c0-0.744 0.656-2.297 1.969-4.659 1.269-2.362 2.844-5.053 4.725-8.071 1.837-3.062 3.85-6.278 6.037-9.647 2.187-3.325 4.134-6.431 5.84-9.318v0l9.646-16.339 72.905-2.56c9.406-0.35 18.746-0.7 28.02-1.049 9.274-0.394 17.849-0.744 25.724-1.05 7.831-0.35 14.59-0.656 20.277-0.919 5.643-0.262 9.581-0.437 11.811-0.525v0c0.131 0 0.437 0.022 0.919 0.066 0.481 0.044 0.984 0.197 1.509 0.459 0.525 0.262 1.028 0.722 1.51 1.378 0.481 0.656 0.722 1.575 0.721 2.756v0c0 0.612-0.744 2.734-2.231 6.365-1.487 3.631-3.631 9.034-6.431 16.209v0l-7.021 18.57c-0.744 1.837-1.597 3.237-2.559 4.2-0.962 0.919-2.997 1.444-6.103 1.575v0c-3.631 0.087-7.306 0.241-11.024 0.459-3.762 0.219-7.612 0.437-11.55 0.657v0l-48.69 2.428c-0.656 4.156-1.116 7.24-1.378 9.252-0.262 2.056-0.416 3.74-0.46 5.053-0.087 1.356-0.131 2.69-0.131 4.003 0 1.356-0.044 3.478-0.131 6.365v0c-0.131 2.012-0.262 3.719-0.394 5.118-0.175 1.356-0.35 2.712-0.525 4.069-0.131 1.356-0.284 2.778-0.459 4.265-0.175 1.487-0.306 3.347-0.394 5.578v0c7.043-0.219 13.955-0.437 20.736-0.656 6.781-0.175 13.037-0.372 18.768-0.591 5.687-0.219 10.631-0.416 14.83-0.59 4.156-0.175 7.087-0.262 8.793-0.263v0c0.831 0 1.794 0.328 2.888 0.985 1.05 0.656 1.575 1.881 1.575 3.674v0c0 0.875-0.153 1.837-0.46 2.888z" fill="#000000" fill-rule="nonzero" stroke="none" stroke-width="1" stroke-linecap="butt" stroke-linejoin="miter" stroke-miterlimit="10" stroke-dasharray="" stroke-dashoffset="0" font-family="none" font-weight="none" font-size="none" text-anchor="none" style="mix-blend-mode: normal" data-fill-palette-color="tertiary"></path></g></g><g transform="matrix(1,0,0,1,5.062756005056883,37.08)"><svg viewBox="0 0 385.3944879898862 173.04" height="173.04" width="385.3944879898862"><g><svg viewBox="0 0 385.3944879898862 173.04" height="173.04" width="385.3944879898862"><g><svg viewBox="0 0 385.3944879898862 173.04" height="173.04" width="385.3944879898862"><g><svg viewBox="0 0 385.3944879898862 173.04" height="173.04" width="385.3944879898862"><g id="textblocktransform"><svg viewBox="0 0 385.3944879898862 173.04" height="173.04" width="385.3944879898862" id="textblock"><g><svg viewBox="0 0 385.3944879898862 173.04" height="173.04" width="385.3944879898862"><g transform="matrix(1,0,0,1,0,0)"><svg width="385.3944879898862" viewBox="0.2200000286102295 -38.959999084472656 121.41999816894531 55.06999969482422" height="173.04" data-palette-color="#0db51f"><path d="M27.71-20.07L27.71-20.07Q27.61-19.7 27.34-19.02 27.08-18.33 26.73-17.47 26.39-16.6 25.98-15.64 25.56-14.67 25.17-13.75L25.17-13.75Q25-13.33 24.77-13.13 24.54-12.94 23.83-12.92L23.83-12.92 16.7-12.79 15.82-1.95Q15.8-1.73 15.7-1.53 15.6-1.32 15.41-1.2L15.41-1.2Q15.33-1.15 14.83-0.92 14.33-0.68 13.57-0.37 12.82-0.05 11.91 0.32 11.01 0.68 10.13 0.99 9.25 1.29 8.52 1.5 7.79 1.71 7.37 1.71L7.37 1.71Q6.88 1.71 6.48 1.53 6.08 1.34 6.08 0.78L6.08 0.78Q6.05-0.44 6.14-1.92 6.23-3.39 6.35-4.92 6.47-6.45 6.62-7.92 6.76-9.4 6.86-10.62L6.86-10.62 7.03-12.67Q4.98-12.67 4.1-12.78 3.22-12.89 3.22-13.35L3.22-13.35Q3.22-13.67 3.59-14.18L3.59-14.18Q4.1-14.89 4.75-15.89 5.4-16.89 5.99-17.85 6.59-18.8 7.04-19.53 7.5-20.26 7.62-20.43L7.62-20.43 8.08-27.15Q7.62-27.15 7.28-27.14 6.93-27.12 6.65-27.11 6.37-27.1 6.13-27.09 5.88-27.08 5.62-27.08L5.62-27.08Q4.44-27.08 3.94-27.21 3.44-27.34 3.44-27.71L3.44-27.71Q3.44-27.88 3.74-28.42 4.03-28.96 4.46-29.65 4.88-30.35 5.38-31.12 5.88-31.88 6.27-32.54L6.27-32.54 7.74-35.03 18.85-35.42Q21-35.5 23.12-35.58 25.24-35.67 27.04-35.74 28.83-35.82 30.13-35.88 31.42-35.94 31.93-35.96L31.93-35.96Q31.96-35.96 32.07-35.95 32.18-35.94 32.3-35.88 32.42-35.82 32.53-35.67 32.64-35.52 32.64-35.25L32.64-35.25Q32.64-35.11 32.3-34.28 31.96-33.45 31.32-31.81L31.32-31.81 30.25-28.98Q30.08-28.56 29.86-28.34 29.64-28.13 28.93-28.1L28.93-28.1Q28.1-28.08 27.25-28.03 26.39-27.98 25.49-27.93L25.49-27.93 18.07-27.56Q17.92-26.61 17.86-26.15 17.8-25.68 17.79-25.38 17.77-25.07 17.77-24.77 17.77-24.46 17.75-23.8L17.75-23.8Q17.72-23.34 17.69-23.02 17.65-22.71 17.61-22.4 17.58-22.09 17.54-21.75 17.5-21.41 17.48-20.9L17.48-20.9Q19.09-20.95 20.64-21 22.19-21.04 23.5-21.09 24.8-21.14 25.76-21.18 26.71-21.22 27.1-21.22L27.1-21.22Q27.29-21.22 27.54-21.07 27.78-20.92 27.78-20.51L27.78-20.51Q27.78-20.31 27.71-20.07ZM44.63-27.25L44.63-27.25Q46.95-27.25 48.84-26.38 50.73-25.51 52.08-24.13 53.44-22.75 54.17-21.04 54.9-19.34 54.9-17.63L54.9-17.63Q54.9-16.11 53.98-14.59 53.05-13.06 51.38-11.84 49.7-10.62 47.36-9.86 45.02-9.11 42.21-9.11L42.21-9.11Q40.74-9.11 39.13-9.4L39.13-9.4Q39.23-8.35 39.74-7.59 40.26-6.84 41.04-6.35 41.82-5.86 42.81-5.63 43.8-5.4 44.85-5.4L44.85-5.4Q46.02-5.4 47.1-5.6 48.19-5.81 49.19-6.15 50.19-6.49 51.12-6.91 52.05-7.32 52.88-7.74L52.88-7.74Q53.1-7.79 53.26-7.82 53.42-7.86 53.56-7.86L53.56-7.86Q53.56-7.86 53.55-7.47 53.54-7.08 53.54-6.37 53.54-5.66 53.53-4.66 53.51-3.66 53.49-2.44L53.49-2.44Q53.56-2.32 53.59-2.2 53.61-2.08 53.61-2L53.61-2Q53.61-1.71 53.07-1.37 52.54-1.03 51.67-0.66 50.8-0.29 49.69 0.05 48.58 0.39 47.43 0.67 46.29 0.95 45.21 1.11 44.14 1.27 43.33 1.27L43.33 1.27Q40.7 1.27 38.22 0.35 35.74-0.56 33.82-2.27 31.91-3.98 30.76-6.42 29.61-8.86 29.61-11.91L29.61-11.91Q29.61-15.11 30.71-17.91 31.81-20.7 33.8-22.78 35.79-24.85 38.55-26.05 41.31-27.25 44.63-27.25ZM44.33-20.75L44.33-20.75Q43.33-20.75 42.49-20.32 41.65-19.9 40.95-19.1 40.26-18.31 39.74-17.2 39.23-16.09 38.91-14.75L38.91-14.75Q41.43-15.19 43.09-15.67 44.75-16.16 45.75-16.66 46.75-17.16 47.17-17.66 47.58-18.16 47.58-18.63L47.58-18.63Q47.58-19.07 47.25-19.46 46.92-19.85 46.43-20.14 45.94-20.43 45.37-20.59 44.8-20.75 44.33-20.75ZM84.15-0.78L78.22 0.88Q77.95 0.95 77.51 1.11 77.07 1.27 76.66 1.27L76.66 1.27Q76.31 1.27 76.06 1.1 75.8 0.93 75.8 0.51L75.8 0.51 75.8 0.37Q75.95-0.95 76.04-1.87 76.14-2.78 76.23-3.53 76.31-4.27 76.37-5.02 76.44-5.76 76.53-6.75 76.63-7.74 76.77-9.09 76.9-10.45 77.09-12.48L77.09-12.48Q77.22-13.72 77.31-15.01 77.41-16.31 77.41-17.41L77.41-17.41Q77.41-18.14 77.3-18.76 77.19-19.38 76.91-19.84 76.63-20.29 76.14-20.53 75.65-20.78 74.9-20.78L74.9-20.78Q74.34-20.78 73.35-20.53 72.36-20.29 71.38-19.73 70.41-19.17 69.65-18.25 68.89-17.33 68.79-15.99L68.79-15.99Q68.65-14.18 68.53-12.9 68.4-11.62 68.31-10.73 68.21-9.84 68.15-9.28 68.09-8.72 68.06-8.33L68.06-8.33Q68.04-8.23 67.99-7.79 67.94-7.35 67.88-6.74 67.82-6.13 67.76-5.44 67.7-4.76 67.63-4.15 67.57-3.54 67.54-3.1 67.5-2.66 67.5-2.56L67.5-2.56Q67.5-2.37 67.51-2.23 67.52-2.1 67.52-1.98L67.52-1.98Q67.52-1.78 67.34-1.65 67.16-1.51 66.52-1.34L66.52-1.34 60.05 0.88Q59.79 0.98 59.35 1.12 58.91 1.27 58.49 1.27L58.49 1.27Q58.15 1.27 57.89 1.1 57.64 0.93 57.64 0.51L57.64 0.51 59.86-24.44Q59.93-25.24 60.04-25.55 60.15-25.85 60.59-25.95L60.59-25.95Q62.81-26.39 65.16-26.84 67.5-27.29 69.72-28L69.72-28Q69.92-28 69.95-27.94 69.99-27.88 69.99-27.76L69.99-27.76Q69.99-27.71 69.98-27.61 69.97-27.51 69.9-27.17 69.84-26.83 69.73-26.14 69.62-25.44 69.43-24.19L69.43-24.19Q71.11-25.17 72.59-25.77 74.07-26.37 75.37-26.7 76.68-27.03 77.83-27.14 78.97-27.25 79.98-27.25L79.98-27.25Q83.42-27.25 84.98-25.16 86.54-23.07 86.54-18.9L86.54-18.9Q86.54-18.31 86.52-17.69 86.49-17.07 86.42-16.41L86.42-16.41 85.3-5.91Q85.18-4.88 85.15-4.02 85.13-3.15 85.13-2L85.13-2Q85.13-1.81 85.14-1.67 85.15-1.54 85.15-1.44L85.15-1.44Q85.15-1.22 84.97-1.1 84.79-0.98 84.15-0.78L84.15-0.78ZM108-17.04L108.02-17.41Q107.78-17.97 107.35-18.55 106.93-19.14 106.36-19.63 105.8-20.12 105.14-20.42 104.48-20.73 103.75-20.73L103.75-20.73Q102.75-20.73 101.87-19.9 100.99-19.07 100.33-17.69 99.68-16.31 99.3-14.54 98.92-12.77 98.92-10.86L98.92-10.86Q98.92-9.69 99.13-8.65 99.33-7.62 99.77-6.84 100.21-6.05 100.91-5.59 101.6-5.13 102.58-5.13L102.58-5.13Q104.05-5.13 105.27-6.04 106.49-6.96 107.34-8.42L107.34-8.42Q107.37-8.94 107.41-9.64 107.46-10.35 107.54-11.36 107.61-12.38 107.72-13.76 107.83-15.14 108-17.04L108-17.04ZM118.62-25.71L116.11-2.66Q115.86-0.24 115.01 1.86 114.15 3.96 112.85 5.7 111.54 7.45 109.87 8.83 108.2 10.21 106.33 11.16 104.46 12.11 102.48 12.61 100.51 13.11 98.58 13.11L98.58 13.11Q97.55 13.11 96.48 13.04 95.4 12.96 94.38 12.76 93.35 12.55 92.42 12.17 91.5 11.79 90.76 11.21L90.76 11.21 90.76 11.18Q90.76 11.06 90.95 10.33 91.13 9.59 91.39 8.61 91.64 7.62 91.92 6.57 92.2 5.52 92.4 4.76L92.4 4.76Q92.5 4.42 92.6 4.3 92.69 4.17 92.81 4.17L92.81 4.17Q92.96 4.17 92.99 4.2L92.99 4.2Q93.69 4.66 94.32 4.97 94.94 5.27 95.63 5.46 96.33 5.64 97.16 5.71 97.99 5.79 99.09 5.79L99.09 5.79Q100.8 5.79 102.12 5.13 103.43 4.47 104.39 3.42 105.34 2.37 105.91 1.11 106.49-0.15 106.71-1.37L106.71-1.37Q104.95-0.2 103.14 0.54 101.34 1.27 99.5 1.27L99.5 1.27Q96.99 1.27 95.16 0.26 93.33-0.76 92.13-2.47 90.93-4.17 90.36-6.38 89.79-8.59 89.79-11.01L89.79-11.01Q89.79-12.92 90.14-14.86 90.5-16.8 91.19-18.6 91.89-20.41 92.91-21.98 93.94-23.56 95.28-24.73 96.62-25.9 98.26-26.57 99.89-27.25 101.82-27.25L101.82-27.25Q103.92-27.25 105.72-26.32 107.51-25.39 108.98-24.02L108.98-24.02Q109.03-24.46 109.05-24.72 109.07-24.98 109.17-25.12 109.27-25.27 109.5-25.34 109.73-25.42 110.17-25.51L110.17-25.51Q110.44-25.56 111.15-25.72 111.86-25.88 112.83-26.1 113.81-26.32 114.98-26.56 116.15-26.81 117.35-27.08L117.35-27.08Q117.64-27.15 117.89-27.15L117.89-27.15Q118.64-27.15 118.64-26.17L118.64-26.17Q118.64-26.05 118.64-25.94 118.64-25.83 118.62-25.71L118.62-25.71Z" opacity="1" transform="matrix(1,0,0,1,0,0)" fill="#000000" class="wordmark-text-0" data-fill-palette-color="primary" id="text-0"></path></svg></g></svg></g></svg></g></svg></g></svg></g></svg></g></svg></g></svg></g><defs></defs></svg><rect width="395.52" height="247.2" fill="none" stroke="none" visibility="hidden"></rect></g></svg></g></svg>